<mxfile host="app.diagrams.net" modified="2021-08-19T03:01:59.351Z" agent="5.0 (X11; Linux x86_64) AppleWebKit/537.36 (KHTML, like Gecko) Chrome/92.0.4515.131 Safari/537.36" etag="6wWLGSmBbh2AK192Dutr" version="14.9.5" type="github">
  <diagram id="Dx-EIc7zOnkc9QnCXkmY" name="第 1 页">
    <mxGraphModel dx="1422" dy="882" grid="1" gridSize="10" guides="1" tooltips="1" connect="1" arrows="1" fold="1" page="1" pageScale="1" pageWidth="827" pageHeight="1169" math="0" shadow="0">
      <root>
        <mxCell id="0" />
        <mxCell id="1" parent="0" />
        <mxCell id="frhP8B2K5qraPiSP0SBM-2" value="" style="rounded=1;whiteSpace=wrap;html=1;" vertex="1" parent="1">
          <mxGeometry x="140" y="210" width="430" height="320" as="geometry" />
        </mxCell>
        <mxCell id="frhP8B2K5qraPiSP0SBM-3" value="" style="rounded=0;whiteSpace=wrap;html=1;" vertex="1" parent="1">
          <mxGeometry x="170" y="240" width="180" height="130" as="geometry" />
        </mxCell>
        <mxCell id="frhP8B2K5qraPiSP0SBM-6" value="" style="rounded=0;whiteSpace=wrap;html=1;" vertex="1" parent="1">
          <mxGeometry x="360" y="240" width="180" height="130" as="geometry" />
        </mxCell>
        <mxCell id="frhP8B2K5qraPiSP0SBM-8" value="" style="rounded=0;whiteSpace=wrap;html=1;" vertex="1" parent="1">
          <mxGeometry x="170" y="380" width="180" height="130" as="geometry" />
        </mxCell>
        <mxCell id="frhP8B2K5qraPiSP0SBM-9" value="" style="rounded=1;whiteSpace=wrap;html=1;" vertex="1" parent="1">
          <mxGeometry x="140" y="560" width="430" height="320" as="geometry" />
        </mxCell>
        <mxCell id="frhP8B2K5qraPiSP0SBM-14" value="" style="rounded=0;whiteSpace=wrap;html=1;" vertex="1" parent="1">
          <mxGeometry x="170" y="590" width="180" height="130" as="geometry" />
        </mxCell>
        <mxCell id="frhP8B2K5qraPiSP0SBM-15" value="" style="rounded=0;whiteSpace=wrap;html=1;" vertex="1" parent="1">
          <mxGeometry x="360" y="590" width="180" height="130" as="geometry" />
        </mxCell>
        <mxCell id="frhP8B2K5qraPiSP0SBM-16" value="" style="rounded=0;whiteSpace=wrap;html=1;" vertex="1" parent="1">
          <mxGeometry x="265" y="730" width="180" height="130" as="geometry" />
        </mxCell>
      </root>
    </mxGraphModel>
  </diagram>
</mxfile>
